# xmcd CD database file
#
# Track frame offsets:
#	150
#	10693
#	23075
#	32395
#	44992
#	56938
#	70001
#	80136
#
# Disc length: 1221 seconds
#
# Revision: 0
# Processed by: cddbd v1.5.2PL0 Copyright (c) Steve Scherf et al.
# Submitted via: CDex 1.70beta3
#
DISCID=6504c308
DTITLE=Bobby Scott - Great Scott
DYEAR=1954
DGENRE=Jazz
TTITLE0=Pee Wee
TTITLE1=Phil's Mood
TTITLE2=Moonbeaux
TTITLE3=Tenderly
TTITLE4=Ode To Monk
TTITLE5=Polka Dots And Moonbeams
TTITLE6=Gone With The Wind
TTITLE7=Lullaby Of Birdland
EXTD=YEAR: 1954
EXTT0=
EXTT1=
EXTT2=
EXTT3=
EXTT4=
EXTT5=
EXTT6=
EXTT7=
PLAYORDER=
